<mxfile host="app.diagrams.net" modified="2023-04-28T18:15:40.749Z" agent="Mozilla/5.0 (Windows NT 10.0; Win64; x64) AppleWebKit/537.36 (KHTML, like Gecko) Chrome/112.0.0.0 Safari/537.36" etag="vBke1SbeC9lQthWff9Y0" version="21.1.8" type="device">
  <diagram name="Página-1" id="SEVLsXSNZD9ax5Bc303o">
    <mxGraphModel dx="838" dy="461" grid="1" gridSize="10" guides="1" tooltips="1" connect="1" arrows="1" fold="1" page="1" pageScale="1" pageWidth="827" pageHeight="1169" math="0" shadow="0">
      <root>
        <mxCell id="0" />
        <mxCell id="1" parent="0" />
        <mxCell id="7EumB_YlPjlMjydvzImP-1" value="Funcionário" style="swimlane;childLayout=stackLayout;horizontal=1;startSize=50;horizontalStack=0;rounded=1;fontSize=14;fontStyle=0;strokeWidth=2;resizeParent=0;resizeLast=1;shadow=0;dashed=0;align=center;arcSize=4;whiteSpace=wrap;html=1;" vertex="1" parent="1">
          <mxGeometry x="219" y="190" width="120" height="180" as="geometry" />
        </mxCell>
        <mxCell id="7EumB_YlPjlMjydvzImP-2" value="Codigo PK&lt;br&gt;Nome&lt;br&gt;Endereco&lt;br&gt;Cidade&lt;br&gt;Estado&lt;br&gt;Telefone&lt;br&gt;Codcidade FK&lt;br&gt;Codcargo FK" style="align=left;strokeColor=none;fillColor=none;spacingLeft=4;fontSize=12;verticalAlign=top;resizable=0;rotatable=0;part=1;html=1;" vertex="1" parent="7EumB_YlPjlMjydvzImP-1">
          <mxGeometry y="50" width="120" height="130" as="geometry" />
        </mxCell>
        <mxCell id="7EumB_YlPjlMjydvzImP-3" value="Cargo" style="swimlane;childLayout=stackLayout;horizontal=1;startSize=50;horizontalStack=0;rounded=1;fontSize=14;fontStyle=0;strokeWidth=2;resizeParent=0;resizeLast=1;shadow=0;dashed=0;align=center;arcSize=4;whiteSpace=wrap;html=1;" vertex="1" parent="1">
          <mxGeometry x="490" y="230" width="106" height="120" as="geometry" />
        </mxCell>
        <mxCell id="7EumB_YlPjlMjydvzImP-4" value="Codigo PK&lt;br&gt;Nome&lt;br&gt;Salario&lt;br&gt;Codsetor FK" style="align=left;strokeColor=none;fillColor=none;spacingLeft=4;fontSize=12;verticalAlign=top;resizable=0;rotatable=0;part=1;html=1;" vertex="1" parent="7EumB_YlPjlMjydvzImP-3">
          <mxGeometry y="50" width="106" height="70" as="geometry" />
        </mxCell>
        <mxCell id="7EumB_YlPjlMjydvzImP-5" value="Setor" style="swimlane;childLayout=stackLayout;horizontal=1;startSize=50;horizontalStack=0;rounded=1;fontSize=14;fontStyle=0;strokeWidth=2;resizeParent=0;resizeLast=1;shadow=0;dashed=0;align=center;arcSize=4;whiteSpace=wrap;html=1;" vertex="1" parent="1">
          <mxGeometry x="498" y="440" width="110" height="110" as="geometry" />
        </mxCell>
        <mxCell id="7EumB_YlPjlMjydvzImP-6" value="Codigo PK&lt;br&gt;Nome&lt;br&gt;Gerente&lt;br&gt;" style="align=left;strokeColor=none;fillColor=none;spacingLeft=4;fontSize=12;verticalAlign=top;resizable=0;rotatable=0;part=1;html=1;" vertex="1" parent="7EumB_YlPjlMjydvzImP-5">
          <mxGeometry y="50" width="110" height="60" as="geometry" />
        </mxCell>
        <mxCell id="7EumB_YlPjlMjydvzImP-7" value="Venda" style="swimlane;childLayout=stackLayout;horizontal=1;startSize=50;horizontalStack=0;rounded=1;fontSize=14;fontStyle=0;strokeWidth=2;resizeParent=0;resizeLast=1;shadow=0;dashed=0;align=center;arcSize=4;whiteSpace=wrap;html=1;" vertex="1" parent="1">
          <mxGeometry x="228" y="440" width="120" height="120" as="geometry" />
        </mxCell>
        <mxCell id="7EumB_YlPjlMjydvzImP-8" value="Codigo PK&lt;br&gt;Data&lt;br&gt;Valor&lt;br&gt;Codfuncionario FK" style="align=left;strokeColor=none;fillColor=none;spacingLeft=4;fontSize=12;verticalAlign=top;resizable=0;rotatable=0;part=1;html=1;" vertex="1" parent="7EumB_YlPjlMjydvzImP-7">
          <mxGeometry y="50" width="120" height="70" as="geometry" />
        </mxCell>
        <mxCell id="7EumB_YlPjlMjydvzImP-11" value="" style="endArrow=none;html=1;rounded=0;" edge="1" parent="1">
          <mxGeometry relative="1" as="geometry">
            <mxPoint x="338" y="290" as="sourcePoint" />
            <mxPoint x="488" y="290" as="targetPoint" />
          </mxGeometry>
        </mxCell>
        <mxCell id="7EumB_YlPjlMjydvzImP-12" value="N" style="resizable=0;html=1;whiteSpace=wrap;align=left;verticalAlign=bottom;" connectable="0" vertex="1" parent="7EumB_YlPjlMjydvzImP-11">
          <mxGeometry x="-1" relative="1" as="geometry">
            <mxPoint x="3" as="offset" />
          </mxGeometry>
        </mxCell>
        <mxCell id="7EumB_YlPjlMjydvzImP-13" value="1" style="resizable=0;html=1;whiteSpace=wrap;align=right;verticalAlign=bottom;" connectable="0" vertex="1" parent="7EumB_YlPjlMjydvzImP-11">
          <mxGeometry x="1" relative="1" as="geometry">
            <mxPoint x="-2" as="offset" />
          </mxGeometry>
        </mxCell>
        <mxCell id="7EumB_YlPjlMjydvzImP-30" value="" style="endArrow=none;html=1;rounded=0;entryX=0.5;entryY=1;entryDx=0;entryDy=0;exitX=0.418;exitY=-0.027;exitDx=0;exitDy=0;exitPerimeter=0;" edge="1" parent="1" source="7EumB_YlPjlMjydvzImP-5" target="7EumB_YlPjlMjydvzImP-4">
          <mxGeometry relative="1" as="geometry">
            <mxPoint x="378" y="370" as="sourcePoint" />
            <mxPoint x="538" y="370" as="targetPoint" />
          </mxGeometry>
        </mxCell>
        <mxCell id="7EumB_YlPjlMjydvzImP-31" value="1" style="resizable=0;html=1;whiteSpace=wrap;align=left;verticalAlign=bottom;" connectable="0" vertex="1" parent="7EumB_YlPjlMjydvzImP-30">
          <mxGeometry x="-1" relative="1" as="geometry">
            <mxPoint x="3" as="offset" />
          </mxGeometry>
        </mxCell>
        <mxCell id="7EumB_YlPjlMjydvzImP-32" value="N" style="resizable=0;html=1;whiteSpace=wrap;align=right;verticalAlign=bottom;" connectable="0" vertex="1" parent="7EumB_YlPjlMjydvzImP-30">
          <mxGeometry x="1" relative="1" as="geometry">
            <mxPoint x="15" y="20" as="offset" />
          </mxGeometry>
        </mxCell>
        <mxCell id="7EumB_YlPjlMjydvzImP-33" value="" style="endArrow=none;html=1;rounded=0;exitX=0.418;exitY=-0.027;exitDx=0;exitDy=0;exitPerimeter=0;entryX=0.5;entryY=1;entryDx=0;entryDy=0;" edge="1" parent="1" target="7EumB_YlPjlMjydvzImP-2">
          <mxGeometry relative="1" as="geometry">
            <mxPoint x="279" y="439" as="sourcePoint" />
            <mxPoint x="278" y="380" as="targetPoint" />
          </mxGeometry>
        </mxCell>
        <mxCell id="7EumB_YlPjlMjydvzImP-34" value="N" style="resizable=0;html=1;whiteSpace=wrap;align=left;verticalAlign=bottom;" connectable="0" vertex="1" parent="7EumB_YlPjlMjydvzImP-33">
          <mxGeometry x="-1" relative="1" as="geometry">
            <mxPoint x="2" y="-2" as="offset" />
          </mxGeometry>
        </mxCell>
        <mxCell id="7EumB_YlPjlMjydvzImP-35" value="1" style="resizable=0;html=1;whiteSpace=wrap;align=right;verticalAlign=bottom;" connectable="0" vertex="1" parent="7EumB_YlPjlMjydvzImP-33">
          <mxGeometry x="1" relative="1" as="geometry">
            <mxPoint x="14" y="19" as="offset" />
          </mxGeometry>
        </mxCell>
      </root>
    </mxGraphModel>
  </diagram>
</mxfile>
